<svg width="200" height="200" viewBox="0 0 200 200" fill="none" xmlns="http://www.w3.org/2000/svg">
  <!-- OSKN Logo - Black and White Design -->
  <rect width="200" height="200" fill="black"/>
  
  <!-- O -->
  <path d="M20 60 Q20 40, 40 40 L60 40 Q80 40, 80 60 L80 80 Q80 100, 60 100 L40 100 Q20 100, 20 80 Z" fill="white"/>
  <path d="M30 60 Q30 50, 40 50 L60 50 Q70 50, 70 60 L70 80 Q70 90, 60 90 L40 90 Q30 90, 30 80 Z" fill="black"/>
  
  <!-- S -->
  <path d="M100 40 Q120 40, 120 50 Q120 60, 110 65 Q120 70, 120 80 Q120 100, 100 100 L90 100 Q90 90, 90 90 L100 90 Q110 90, 110 80 Q110 70, 100 70 L90 70 L90 60 L100 60 Q110 60, 110 50 Q110 40, 100 40 Z" fill="white"/>
  
  <!-- K -->
  <path d="M140 40 L150 40 L150 65 L170 40 L182 40 L162 65 L185 100 L172 100 L150 68 L150 100 L140 100 Z" fill="white"/>
  
  <!-- N -->
  <path d="M20 120 L30 120 L30 165 L60 120 L70 120 L70 180 L60 180 L60 135 L30 180 L20 180 Z" fill="white"/>
  
  <!-- Accent dot (optional detail) -->
  <circle cx="100" cy="150" r="8" fill="white"/>
</svg>
